<svg xmlns="http://www.w3.org/2000/svg" xmlns:xlink="http://www.w3.org/1999/xlink" width="3494" zoomAndPan="magnify" viewBox="0 0 2620.5 1775.999925" height="2368" preserveAspectRatio="xMidYMid meet" version="1.0"><style>@media (prefers-color-scheme: dark){[fill="#000000"]{fill:#ffffff}}</style><defs><g/><clipPath id="aba3db3676"><path d="M 1145.636719 887.800781 L 1289.609375 887.800781 L 1289.609375 1031.773438 L 1145.636719 1031.773438 Z M 1145.636719 887.800781 " clip-rule="nonzero"/></clipPath><clipPath id="c08aa12edf"><path d="M 1217.621094 887.800781 C 1177.863281 887.800781 1145.636719 920.03125 1145.636719 959.789062 C 1145.636719 999.542969 1177.863281 1031.773438 1217.621094 1031.773438 C 1257.378906 1031.773438 1289.609375 999.542969 1289.609375 959.789062 C 1289.609375 920.03125 1257.378906 887.800781 1217.621094 887.800781 Z M 1217.621094 887.800781 " clip-rule="nonzero"/></clipPath><clipPath id="7d98c90b42"><path d="M 0.636719 0.800781 L 144.609375 0.800781 L 144.609375 144.773438 L 0.636719 144.773438 Z M 0.636719 0.800781 " clip-rule="nonzero"/></clipPath><clipPath id="bdc28ff4df"><path d="M 72.621094 0.800781 C 32.863281 0.800781 0.636719 33.03125 0.636719 72.789062 C 0.636719 112.542969 32.863281 144.773438 72.621094 144.773438 C 112.378906 144.773438 144.609375 112.542969 144.609375 72.789062 C 144.609375 33.03125 112.378906 0.800781 72.621094 0.800781 Z M 72.621094 0.800781 " clip-rule="nonzero"/></clipPath><clipPath id="fc3ba76042"><rect x="0" width="145" y="0" height="145"/></clipPath></defs><g clip-path="url(#aba3db3676)"><g clip-path="url(#c08aa12edf)"><g transform="matrix(1, 0, 0, 1, 1145, 887)"><g clip-path="url(#fc3ba76042)"><g clip-path="url(#7d98c90b42)"><g clip-path="url(#bdc28ff4df)"><path fill="#439cce" d="M 0.636719 0.800781 L 144.609375 0.800781 L 144.609375 144.773438 L 0.636719 144.773438 Z M 0.636719 0.800781 " fill-opacity="1" fill-rule="nonzero"/></g></g></g></g></g></g><g fill="#000000" fill-opacity="1"><g transform="translate(316.27423, 1125.507695)"><g><path d="M 21.90625 0 L 21.90625 -447.734375 C 29.53125 -437.578125 41.4375 -428.6875 57.625 -421.0625 C 73.820312 -413.445312 95.578125 -407.414062 122.890625 -402.96875 C 140.035156 -400.425781 156.863281 -397.722656 173.375 -394.859375 C 189.894531 -392.003906 203.550781 -385.8125 214.34375 -376.28125 C 225.132812 -366.757812 230.53125 -350.566406 230.53125 -327.703125 L 230.53125 0 Z M 248.640625 -539.1875 C 248.640625 -506.164062 237.523438 -479.015625 215.296875 -457.734375 C 193.066406 -436.460938 163.535156 -425.828125 126.703125 -425.828125 C 89.867188 -425.828125 60.335938 -436.460938 38.109375 -457.734375 C 15.878906 -479.015625 4.765625 -506.164062 4.765625 -539.1875 C 4.765625 -572.851562 15.878906 -600.320312 38.109375 -621.59375 C 60.335938 -642.875 89.867188 -653.515625 126.703125 -653.515625 C 163.535156 -653.515625 193.066406 -642.875 215.296875 -621.59375 C 237.523438 -600.320312 248.640625 -572.851562 248.640625 -539.1875 Z M 248.640625 -539.1875 "/></g></g></g><g fill="#000000" fill-opacity="1"><g transform="translate(568.721674, 1125.507695)"><g><path d="M 16.1875 -106.703125 C 16.1875 -140.359375 27.457031 -167.664062 50 -188.625 C 72.550781 -209.582031 102.242188 -220.0625 139.078125 -220.0625 C 175.285156 -220.0625 204.660156 -209.582031 227.203125 -188.625 C 249.753906 -167.664062 261.03125 -140.359375 261.03125 -106.703125 C 261.03125 -73.671875 249.753906 -46.515625 227.203125 -25.234375 C 204.660156 -3.960938 175.285156 6.671875 139.078125 6.671875 C 102.242188 6.671875 72.550781 -3.960938 50 -25.234375 C 27.457031 -46.515625 16.1875 -73.671875 16.1875 -106.703125 Z M 16.1875 -106.703125 "/></g></g></g><g fill="#000000" fill-opacity="1"><g transform="translate(846.890162, 1125.507695)"><g><path d="M 315.328125 -515.375 L 597.3125 -515.375 C 597.3125 -473.457031 588.097656 -436.78125 569.671875 -405.34375 C 551.253906 -373.90625 528.867188 -347.707031 502.515625 -326.75 C 476.160156 -305.789062 450.28125 -289.597656 424.875 -278.171875 C 431.863281 -267.367188 438.847656 -256.09375 445.828125 -244.34375 C 452.816406 -232.601562 461.550781 -218.472656 472.03125 -201.953125 C 482.507812 -185.441406 495.6875 -164.171875 511.5625 -138.140625 C 523.632812 -119.710938 536.492188 -104.148438 550.140625 -91.453125 C 563.796875 -78.753906 577.453125 -70.972656 591.109375 -68.109375 C 604.765625 -65.253906 616.992188 -69.859375 627.796875 -81.921875 L 643.984375 -64.78125 C 625.566406 -38.101562 602.546875 -19.523438 574.921875 -9.046875 C 547.296875 1.429688 521.097656 6.671875 496.328125 6.671875 C 474.734375 6.671875 451.390625 3.652344 426.296875 -2.375 C 401.210938 -8.414062 375.332031 -21.914062 348.65625 -42.875 C 321.988281 -63.832031 295 -95.898438 267.6875 -139.078125 C 248.632812 -168.929688 232.914062 -193.382812 220.53125 -212.4375 C 208.144531 -231.488281 198.144531 -247.367188 190.53125 -260.078125 C 172.113281 -248.003906 165.441406 -228.628906 170.515625 -201.953125 C 175.597656 -175.285156 189.726562 -144.484375 212.90625 -109.546875 C 236.09375 -74.617188 264.832031 -38.101562 299.125 0 L 16.1875 0 C 16.1875 -35.5625 21.265625 -68.425781 31.421875 -98.59375 C 41.585938 -128.757812 54.925781 -155.910156 71.4375 -180.046875 C 87.957031 -204.179688 105.582031 -224.660156 124.3125 -241.484375 C 143.050781 -258.316406 160.992188 -271.179688 178.140625 -280.078125 C 170.523438 -292.773438 164.332031 -302.773438 159.5625 -310.078125 C 154.800781 -317.390625 149.5625 -325.804688 143.84375 -335.328125 C 138.132812 -344.859375 129.5625 -359.148438 118.125 -378.203125 C 107.96875 -395.347656 94.945312 -410.113281 79.0625 -422.5 C 63.1875 -434.882812 47.3125 -442.660156 31.4375 -445.828125 C 15.5625 -449.003906 2.539062 -444.878906 -7.625 -433.453125 L -23.8125 -450.59375 C -5.394531 -477.90625 17.625 -496.640625 45.25 -506.796875 C 72.875 -516.960938 99.070312 -522.046875 123.84375 -522.046875 C 146.070312 -522.046875 170.363281 -519.03125 196.71875 -513 C 223.070312 -506.96875 250.539062 -493.628906 279.125 -472.984375 C 307.707031 -452.347656 335.648438 -420.4375 362.953125 -377.25 C 373.117188 -361.363281 381.691406 -347.707031 388.671875 -336.28125 C 395.660156 -324.851562 402.015625 -314.375 407.734375 -304.84375 C 424.242188 -323.894531 423.925781 -351.519531 406.78125 -387.71875 C 389.632812 -423.925781 359.148438 -466.476562 315.328125 -515.375 Z M 315.328125 -515.375 "/></g></g></g><g fill="#000000" fill-opacity="1"><g transform="translate(1461.337471, 1125.507695)"><g><path d="M 21.90625 0 L 21.90625 -447.734375 C 29.53125 -437.578125 41.4375 -428.6875 57.625 -421.0625 C 73.820312 -413.445312 95.578125 -407.414062 122.890625 -402.96875 C 140.035156 -400.425781 156.863281 -397.722656 173.375 -394.859375 C 189.894531 -392.003906 203.550781 -385.8125 214.34375 -376.28125 C 225.132812 -366.757812 230.53125 -350.566406 230.53125 -327.703125 L 230.53125 0 Z M 248.640625 -539.1875 C 248.640625 -506.164062 237.523438 -479.015625 215.296875 -457.734375 C 193.066406 -436.460938 163.535156 -425.828125 126.703125 -425.828125 C 89.867188 -425.828125 60.335938 -436.460938 38.109375 -457.734375 C 15.878906 -479.015625 4.765625 -506.164062 4.765625 -539.1875 C 4.765625 -572.851562 15.878906 -600.320312 38.109375 -621.59375 C 60.335938 -642.875 89.867188 -653.515625 126.703125 -653.515625 C 163.535156 -653.515625 193.066406 -642.875 215.296875 -621.59375 C 237.523438 -600.320312 248.640625 -572.851562 248.640625 -539.1875 Z M 248.640625 -539.1875 "/></g></g></g><g fill="#000000" fill-opacity="1"><g transform="translate(1726.169131, 1125.507695)"><g><path d="M 21.90625 -515.375 L 45.734375 -515.375 C 45.734375 -489.96875 50.492188 -471.550781 60.015625 -460.125 C 69.546875 -448.695312 82.085938 -442.347656 97.640625 -441.078125 C 113.203125 -439.804688 130.191406 -441.390625 148.609375 -445.828125 C 167.660156 -450.273438 186.394531 -458.691406 204.8125 -471.078125 C 223.226562 -483.460938 242.597656 -495.050781 262.921875 -505.84375 C 283.242188 -516.644531 305.472656 -522.046875 329.609375 -522.046875 C 384.867188 -522.046875 430.597656 -510.769531 466.796875 -488.21875 C 502.992188 -465.675781 528.875 -435.035156 544.4375 -396.296875 C 560 -357.554688 563.648438 -313.414062 555.390625 -263.875 C 549.671875 -225.769531 546.96875 -193.378906 547.28125 -166.703125 C 547.601562 -140.035156 556.972656 -118.445312 575.390625 -101.9375 C 588.097656 -91.132812 601.910156 -87.160156 616.828125 -90.015625 C 631.753906 -92.878906 646.835938 -101.929688 662.078125 -117.171875 L 676.375 -101.9375 C 660.5 -80.976562 639.378906 -61.601562 613.015625 -43.8125 C 586.660156 -26.03125 558.398438 -12.851562 528.234375 -4.28125 C 498.066406 4.289062 468.691406 5.875 440.109375 0.46875 C 411.535156 -4.925781 387.085938 -20.328125 366.765625 -45.734375 C 351.523438 -65.421875 341.679688 -87.171875 337.234375 -110.984375 C 332.785156 -134.796875 331.671875 -160.195312 333.890625 -187.1875 C 336.117188 -214.1875 339.140625 -241.65625 342.953125 -269.59375 C 350.566406 -318.5 353.582031 -357.554688 352 -386.765625 C 350.414062 -415.984375 345.492188 -437.738281 337.234375 -452.03125 C 328.972656 -466.320312 318.648438 -474.734375 306.265625 -477.265625 C 293.890625 -479.804688 280.710938 -478.859375 266.734375 -474.421875 C 252.765625 -469.972656 243.394531 -461.078125 238.625 -447.734375 C 233.863281 -434.398438 231.164062 -418.207031 230.53125 -399.15625 L 230.53125 0 L 21.90625 0 Z M 21.90625 -515.375 "/></g></g></g></svg>